{"title":"Sona Spa (2013) Untouched Web Rip 720P Eng Subs IcTv Hindi","uid":8972652,"size":1109187785,"categoryP":"video","categoryS":"hd___movies","magnet":"?xt=urn:btih:b22d2796e5336898a238e44cb2792c3d0db76c31&amp;dn=Sona+Spa+%282013%29+Untouched+Web+Rip+720P+Eng+Subs+IcTv+Hindi&amp;tr=udp%3A%2F%2Ftracker.openbittorrent.com%3A80&amp;tr=udp%3A%2F%2Fopen.demonii.com%3A1337&amp;tr=udp%3A%2F%2Ftracker.coppersurfer.tk%3A6969&amp;tr=udp%3A%2F%2Fexodus.desync.com%3A6969","seeders":1,"leechers":1,"uploader":"SJonam","files":1,"time":1380363110,"description":" &lt;a href=&quot;http://s18.postimg.org/q1xcnecvd/9999999999.jpg&quot; rel=&quot;nofollow&quot; target=&quot;_NEW&quot;&gt;http://s18.postimg.org/q1xcnecvd/9999999999.jpg&lt;/a&gt; &lt;a href=&quot;\nhttp://i.imgur.com/lJOgAo2.png&quot; rel=&quot;nofollow&quot; target=&quot;_NEW&quot;&gt;\nhttp://i.imgur.com/lJOgAo2.png&lt;/a&gt; &lt;a href=&quot;\nhttp://t1.someimage.com/YsB146q.jpg&quot; rel=&quot;nofollow&quot; target=&quot;_NEW&quot;&gt;\nhttp://t1.someimage.com/YsB146q.jpg&lt;/a&gt; &lt;a href=&quot;\nhttp://t1.someimage.com/Ud4MTwS.jpg&quot; rel=&quot;nofollow&quot; target=&quot;_NEW&quot;&gt;\nhttp://t1.someimage.com/Ud4MTwS.jpg&lt;/a&gt; &lt;a href=&quot;\nhttp://t1.someimage.com/ouydMZ5.jpg&quot; rel=&quot;nofollow&quot; target=&quot;_NEW&quot;&gt;\nhttp://t1.someimage.com/ouydMZ5.jpg&lt;/a&gt; &lt;a href=&quot;\nhttp://t1.someimage.com/HrVVLkZ.jpg&quot; rel=&quot;nofollow&quot; target=&quot;_NEW&quot;&gt;\nhttp://t1.someimage.com/HrVVLkZ.jpg&lt;/a&gt; &lt;a href=&quot;\nhttp://t1.someimage.com/ZrWrkow.jpg&quot; rel=&quot;nofollow&quot; target=&quot;_NEW&quot;&gt;\nhttp://t1.someimage.com/ZrWrkow.jpg&lt;/a&gt;\n\nMedia Info - \nGeneral\nComplete name : Sona Spa (2013) Untouched Web Rip - 720P - Eng Subs - Team IcTv Exclusive.mp4\nFormat : MPEG-4\nFormat profile : Base Media / Version 2\nCodec ID : mp42\nFile size : 1.03 GiB\nDuration : 1h 42mn\nOverall bit rate mode : Variable\nOverall bit rate : 1 446 Kbps\nEncoded date : UTC 2013-05-29 20:20:34\nTagged date : UTC 2013-05-29 20:20:34\n\nVideo\nFormat : AVC\nFormat/Info : Advanced Video Codec\nFormat profile : &lt;a class=&quot;__cf_email__&quot; href=&quot;/cdn-cgi/l/email-protection&quot; data-cfemail=&quot;2e664749466e621d001f&quot;&gt;[email&amp;#160;protected]&lt;/a&gt;&lt;script cf-hash='f9e31' type=&quot;text/javascript&quot;&gt;\n/* &lt;![CDATA[ */!function(){try{var t=&quot;currentScript&quot;in document?document.currentScript:function(){for(var t=document.getElementsByTagName(&quot;script&quot;),e=t.length;e--;)if(t[e].getAttribute(&quot;cf-hash&quot;))return t[e]}();if(t&amp;&amp;t.previousSibling){var e,r,n,i,c=t.previousSibling,a=c.getAttribute(&quot;data-cfemail&quot;);if(a){for(e=&quot;&quot;,r=parseInt(a.substr(0,2),16),n=2;a.length-n;n+=2)i=parseInt(a.substr(n,2),16)^r,e+=String.fromCharCode(i);e=document.createTextNode(e),c.parentNode.replaceChild(e,c)}}}catch(u){}}();/* ]]&gt; */&lt;/script&gt;\nFormat settings, CABAC : Yes\nFormat settings, ReFrames : 1 frame\nCodec ID : avc1\nCodec ID/Info : Advanced Video Coding\nDuration : 1h 42mn\nBit rate : 1 252 Kbps\nMaximum bit rate : 5 535 Kbps\nWidth : 1 280 pixels\nHeight : 720 pixels\nDisplay aspect ratio : 16:9\nFrame rate mode : Constant\nFrame rate : 24.000 fps\nColor space : YUV\nChroma subsampling : 4:2:0\nBit depth : 8 bits\nScan type : Progressive\nBits/(Pixel*Frame) : 0.057\nStream size : 916 MiB (87%)\nTagged date : UTC 2013-05-29 20:33:34\n\nAudio\nFormat : AAC\nFormat/Info : Advanced Audio Codec\nFormat profile : LC\nCodec ID : 40\nDuration : 1h 42mn\nBit rate mode : Variable\nBit rate : 192 Kbps\nMaximum bit rate : 202 Kbps\nChannel(s) : 2 channels\nChannel positions : Front: L R\nSampling rate : 44.1 KHz\nCompression mode : Lossy\nStream size : 140 MiB (13%)\nTitle : IsoMedia File Produced by Google, 5-11-2011\nEncoded date : UTC 2013-05-29 20:29:21\nTagged date : UTC 2013-05-29 20:33:34\n\nRipper : Lottery\n\nSeeding 24x7... Extreme Seeding...\n\n\nEnjoy!\n","torrent":{"xt":"urn:btih:b22d2796e5336898a238e44cb2792c3d0db76c31","amp;dn":"Sona+Spa+%282013%29+Untouched+Web+Rip+720P+Eng+Subs+IcTv+Hindi","amp;tr":["udp%3A%2F%2Ftracker.openbittorrent.com%3A80","udp%3A%2F%2Fopen.demonii.com%3A1337","udp%3A%2F%2Ftracker.coppersurfer.tk%3A6969","udp%3A%2F%2Fexodus.desync.com%3A6969"],"infoHash":"b22d2796e5336898a238e44cb2792c3d0db76c31","infoHashBuffer":{"type":"Buffer","data":[178,45,39,150,229,51,104,152,162,56,228,76,178,121,44,61,13,183,108,49]},"announce":[],"urlList":[]}}